<svg xmlns="http://www.w3.org/2000/svg" xmlns:xlink="http://www.w3.org/1999/xlink" id="f5c15048-c720-4900-b472-a7b0f9145494" x="0px" y="0px" viewBox="0 0 196 55" style="enable-background:new 0 0 196 55;" xml:space="preserve"><rect style="fill:#FFFFFF;fill-opacity:0;" width="196" height="55"></rect><path style="fill:#C8D5DC;" d="M16.2859,15v0.6926c0.8342,0.0696,1.6412,0.3303,2.3586,0.7617  c0.5067,0.4085,0.834,0.9986,0.9124,1.6448c0.1678,1.2216,0.2369,2.4548,0.2066,3.6875V29.82  c0.127,2.2927-0.3478,4.5787-1.3773,6.6311c-0.9833,1.5948-2.7816,2.499-4.6482,2.3372c-1.2411,0.1066-2.4579-0.3893-3.2709-1.333  c-0.6887-0.8889-1.0331-2.4413-1.033-4.6572V18.67c-0.0288-0.6417,0.0409-1.2839,0.2066-1.9045  c0.1185-0.3726,0.4055-0.6677,0.7747-0.7964c0.5874-0.1729,1.1954-0.266,1.8077-0.2769V15c-1.4,0.0693-3.4544,0.1039-6.1632,0.1038  H5.5231C3.0622,15.0992,1.2211,15.0646,0,15v0.6926c0.5447,0.011,1.0845,0.1045,1.6011,0.2774  c0.3376,0.1438,0.5868,0.4394,0.6714,0.7964C2.411,17.391,2.4688,18.0307,2.4446,18.67v10.873  c-0.0518,1.8635,0.1392,3.7258,0.5682,5.54c0.3467,1.3159,1.145,2.468,2.2552,3.2549C7.1991,39.5545,9.4627,40.1358,11.741,40  c1.5965,0.0579,3.1871-0.2254,4.6654-0.8311C17.5437,38.6745,18.5,37.84,19.1437,36.78c0.9411-1.5698,1.4117-4.0167,1.4117-7.3408  v-8.345c-0.0211-1.0416,0.0365-2.0834,0.1721-3.1164c0.0597-0.5738,0.301-1.1136,0.6887-1.5408  c0.4508-0.3869,0.9982-0.6442,1.5838-0.7444V15c-0.6886,0.0693-1.6412,0.1039-2.8578,0.1038  C18.5125,15.1038,17.2271,15.0692,16.2859,15z"></path><path style="fill:#C8D5DC;" d="M53.3455,16.9246c-1.7698-1.2596-4.3665-1.8893-7.79-1.8892c-0.6015,0-1.1336,0.0117-1.5962,0.0352  l-3.9906,0.0354c-2.6605,0-4.65-0.0353-5.9687-0.106v0.7063c0.5437,0.0094,1.0824,0.1047,1.5963,0.2825  c0.3361,0.1552,0.5845,0.4534,0.6766,0.812c0.1534,0.6354,0.2176,1.289,0.1908,1.9421v17.5142  c0.0245,0.6521-0.0338,1.3047-0.1735,1.9421c-0.0839,0.3627-0.335,0.664-0.6766,0.812c-0.5202,0.1763-1.0644,0.2715-1.6136,0.2825  V40l1.6656-0.0354c1.9432-0.0467,3.4585-0.0702,4.5458-0.0706c1.6425,0,4.0253,0.0353,7.1482,0.106v-0.8123  c-0.8335,0.0312-1.6675-0.0459-2.4811-0.2294c-0.4784-0.1175-0.8756-0.4498-1.0756-0.9c-0.2346-0.6926-0.3347-1.4236-0.295-2.1538  v-6.003h1.2839c2.2709,0.0925,4.5342-0.3177,6.6282-1.2015c1.4524-0.6169,2.6857-1.6565,3.5394-2.9836  c0.6761-1.1252,1.0357-2.4122,1.0406-3.7249C56.045,19.9585,55.0425,18.045,53.3455,16.9246z M48.1167,27.2305  C47.5081,28.4235,46.2335,29.1247,44.9,29H44V18.9268c-0.0163-0.6155,0.0284-1.231,0.1334-1.8377  c0.0475-0.3427,0.2345-0.6506,0.5166-0.8508c0.3549-0.1816,0.7522-0.2639,1.15-0.2383c1.0709-0.0538,2.0594,0.5735,2.4667,1.5654  c0.5749,1.5549,0.8245,3.2112,0.7333,4.8665C49.0733,24.0777,48.7712,25.7186,48.1167,27.2305z"></path><path style="fill:#C8D5DC;" d="M165.468,38.13c-0.3864,0.0156-0.7541-0.1671-0.975-0.4846  c-0.311-0.5443-0.5121-1.1443-0.5919-1.7661l-0.7312-3.6011c-0.2341-1.344-1.0496-2.5162-2.2284-3.2029  c-1.6622-0.8479-3.4964-1.3039-5.3621-1.333c3.064-0.2771,5.246-1.0273,6.546-2.2507c1.2579-1.1277,1.9685-2.7429,1.95-4.4321  c0.0833-1.886-0.9263-3.6515-2.594-4.5362c-1.7293-0.9924-4.3582-1.4886-7.8865-1.4887c-0.6035,0-1.1374,0.0115-1.6017,0.0346  l-4.0041,0.0345c-2.6695,0-4.6658-0.0346-5.9889-0.1038v0.6926c0.545,0.0092,1.0853,0.1026,1.6017,0.2769  c0.3348,0.1495,0.5843,0.4421,0.6789,0.7964c0.1539,0.6225,0.2184,1.2638,0.1916,1.9045V35.845  c0.0245,0.6396-0.034,1.2797-0.1741,1.9043c-0.0868,0.3584-0.3389,0.654-0.679,0.7964c-0.5228,0.173-1.0687,0.2664-1.6193,0.2771  v0.6923c1.3231-0.0691,3.3891-0.1036,6.1978-0.1037c2.5302,0,4.4685,0.0346,5.8148,0.1037v-0.6923  c-0.545-0.0091-1.0853-0.1026-1.6017-0.2771c-0.3348-0.1495-0.5843-0.4421-0.679-0.7964c-0.1539-0.6225-0.2184-1.2637-0.1915-1.9043  v-7.9641h1.5668c0.8088-0.0036,1.5359,0.4923,1.828,1.2465c0.4984,1.1694,0.8211,2.4061,0.9576,3.67l0.5222,3.4626  c0.0903,1.1586,0.6897,2.2174,1.6366,2.8911c1.137,0.6285,2.4285,0.9228,3.7256,0.8489c0.9908,0.0181,1.9782-0.1221,2.9248-0.4155  c0.8693-0.2982,1.6565-0.7964,2.298-1.4545l-0.4526-0.45C166.2648,37.972,165.8744,38.1348,165.468,38.13z M151.9,27H151v-8.1506  c-0.0163-0.5993,0.0284-1.1988,0.1334-1.7891c0.0492-0.3361,0.2364-0.6364,0.5166-0.8284c0.3563-0.1769,0.7529-0.2569,1.15-0.2319  c1.0207-0.0643,1.9825,0.482,2.45,1.3916c0.5728,1.2905,0.8298,2.6988,0.75,4.1084c0.0774,1.4059-0.2217,2.8071-0.8666,4.0588  C154.4018,26.5962,153.1606,27.1494,151.9,27z"></path><path style="fill:#C8D5DC;" d="M93.7512,15v0.7063c0.8356-0.0098,1.6421,0.3069,2.2478,0.8826  c0.5845,0.7258,0.8654,1.6495,0.7841,2.5778c-0.0867,1.683-0.4033,3.3462-0.9409,4.9434l-2.6834,8.7219l-4.6-14.16  c-0.2081-0.5175-0.326-1.0669-0.3485-1.6243c-0.0397-0.423,0.1808-0.8279,0.5576-1.0242c0.5762-0.2278,1.1928-0.3357,1.8121-0.3172  V15c-1.1849,0.0706-2.9854,0.1059-5.4017,0.106l-0.6063-0.0008c-2.188-0.0053-3.9956-0.0403-5.4228-0.1052v0.7063  c0.3946,0.0285,0.7712,0.1762,1.08,0.4236c0.3409,0.3405,0.582,0.7679,0.6971,1.2358l2.37,7.3093l-3.0669,8.4041l-5.0532-14.4067  c-0.1997-0.4941-0.3061-1.0209-0.3137-1.5537c0-0.824,0.3137-1.2948,0.941-1.4124V15c-0.9758,0.0706-2.5208,0.1059-4.635,0.106  l-0.72-0.001C68.3218,15.0986,66.5057,15.0636,65,15v0.7063c0.4179,0.0592,0.801,0.2658,1.08,0.5825  c0.442,0.4825,0.7748,1.0546,0.9758,1.6773L75.1414,40c0.7434-0.0471,1.3475-0.0707,1.8122-0.0706  c0.4879,0,1.1036,0.0235,1.847,0.0706l4.9138-14.0183L88.2449,40c0.7435-0.0471,1.3476-0.0707,1.8122-0.0706  c0.4879,0,1.1036,0.0235,1.8471,0.0706l5.8548-19.35c0.7899-2.6133,1.8702-4.2612,3.241-4.9437V15  c-0.697,0.0706-1.5915,0.1059-2.6834,0.106C97.0155,15.106,95.4937,15.0707,93.7512,15z"></path><path style="fill:#C8D5DC;" d="M129.9514,37.0339L121.5486,15c-0.7407,0.0471-1.3425,0.0707-1.8056,0.0706  c-0.486,0-1.0993-0.0235-1.84-0.0706l-7.7083,20.1624c-0.3708,1.0827-0.8972,2.1057-1.5625,3.0368  c-0.3877,0.5565-0.9702,0.9471-1.6322,1.0945V40c0.6945-0.0706,1.5857-0.1059,2.6736-0.106c1.2963,0,2.8125,0.0353,4.5486,0.106  v-0.7063c-0.8261,0.0113-1.6406-0.1956-2.3611-0.6c-0.5889-0.4777-0.8906-1.2248-0.7986-1.9775  c0.1227-1.5833,0.51-3.1348,1.1459-4.59l0.59-1.5891h7.0139l2.0486,5.791c0.2382,0.5359,0.3793,1.1098,0.4167,1.6951  c0.0297,0.3976-0.1923,0.7714-0.5556,0.9356c-0.6003,0.2218-1.2351,0.3353-1.875,0.3354V40c1.25-0.0706,3.1944-0.1059,5.8333-0.106  c2.5467,0,4.6533,0.0353,6.32,0.106v-0.7063c-0.4126-0.0575-0.7895-0.2649-1.059-0.5825  C130.5065,38.221,130.1704,37.6515,129.9514,37.0339z M113,30l3.08-9l2.92,9H113z"></path><path style="fill:#C8D5DC;" d="M195.7582,34.0679c0-1.3184,0.0345-2.4013,0.1036-3.2488h-0.7944  c-0.5067,2.9192-1.3587,5.0438-2.5562,6.3738c-0.9154,1.187-2.3031,1.9155-3.8,1.9948h-1.14  c-0.4604,0.0211-0.9211-0.0325-1.3644-0.1586c-0.279-0.0969-0.4963-0.319-0.5872-0.6c-0.1259-0.4777-0.1783-0.9718-0.1555-1.4653  v-9.1813h0.3455c1.2036-0.0261,2.3629,0.4543,3.1951,1.3242c0.8781,0.9122,1.4409,2.0816,1.6062,3.3369h0.7945  c-0.1382-2.1423-0.2073-3.8137-0.2073-5.0142v-1.695c0-1.2241,0.0345-2.3304,0.1036-3.3191h-0.7944  c-0.2409,1.1981-0.8019,2.3085-1.6235,3.2131c-0.7552,0.9199-1.884,1.4515-3.0742,1.4478h-0.3455v-9.04  c-0.0228-0.4935,0.0296-0.9876,0.1555-1.4653c0.0909-0.281,0.3082-0.5031,0.5872-0.6c0.4433-0.1261,0.904-0.1797,1.3644-0.1586  h0.4491c1.5403-0.0115,3.0117,0.6377,4.0414,1.7832c1.1284,1.1887,1.8998,3.1484,2.3143,5.8791h0.7945  c-0.0795-0.8451-0.114-1.6938-0.1036-2.5425c0-1.7419,0.0806-3.7192,0.2417-5.9321c-1.2692,0.0627-3.3116,0.0976-6.1272,0.1047  l-2.467,0.0005C182.0105,15.0996,178.4391,15.0645,176,15v0.7063c0.5413,0.0094,1.0777,0.1047,1.589,0.2825  c0.3351,0.1558,0.5824,0.4539,0.6735,0.812c0.1528,0.6355,0.2167,1.2891,0.19,1.9421v17.5142  c0.0244,0.6521-0.0336,1.3046-0.1727,1.9421c-0.0832,0.3621-0.333,0.6633-0.6735,0.812c-0.5177,0.1762-1.0595,0.2715-1.6063,0.2825  V40c2.6713-0.0706,6.7013-0.1059,12.09-0.106c3.7076,0,6.3443,0.0353,7.91,0.106C195.8388,38.4463,195.7582,36.469,195.7582,34.0679  z"></path></svg>