<svg xmlns="http://www.w3.org/2000/svg" xmlns:xlink="http://www.w3.org/1999/xlink" id="a6929079-1140-4ead-a0b7-b65e4320e083" x="0px" y="0px" viewBox="0 0 196 55" style="enable-background:new 0 0 196 55;" xml:space="preserve"><g id="f4c6beec-24b7-499b-b450-c22ffb6c6cd2">	<g id="edcd917b-b9c1-4d3a-b2c2-6d0ef7e6006b">		<g id="fae97780-246d-48db-9c90-9265d58de7b3">			<g id="f7721612-946a-4ae8-98dd-2efa905ef8a8">				<rect id="bda41c15-697f-4830-8cc2-609a5e7eece2" style="fill:#D8D8D8;fill-opacity:0;" width="196" height="55"></rect>				<path style="fill-rule:evenodd;clip-rule:evenodd;fill:#C8D5DC;" d="M154.2511,32.5c1.5413,0.0617,3.0491-0.4606,4.222-1.4625      c1.0768-0.9421,1.8838-2.1534,2.3385-3.51l-0.5336-0.1755c-0.868,1.2367-2.2873,1.9691-3.7982,1.96      c-0.9901,0.0068-1.9303-0.4339-2.5583-1.1993c-0.8103-1.1708-1.1826-2.5895-1.0516-4.0073c0-0.468,0.0105-0.819,0.0315-1.053      H161c0-4.3683-1.9776-6.5524-5.9327-6.5524c-2.1355-0.1025-4.2295,0.6142-5.8543,2.0037      c-1.4753,1.3357-2.213,3.3394-2.213,6.0109c0,2.7886,0.6592,4.8166,1.9776,6.0841      C150.4117,31.9101,152.3101,32.5945,154.2511,32.5z M155.2744,17.5c0.5973,0,1.0395,0.467,1.3267,1.4011      c0.3154,1.1723,0.449,2.3861,0.3963,3.5989H153C153.2297,19.1667,153.9879,17.5,155.2744,17.5z"></path>				<path style="fill-rule:evenodd;clip-rule:evenodd;fill:#C8D5DC;" d="M140,32.5v-0.6445      c-0.4961,0.0539-0.9896-0.1212-1.3408-0.4757c-0.3093-0.5224-0.4442-1.1298-0.3852-1.734V8.5      c-1.7698,0.3146-3.5658,0.4586-5.3631,0.43c-0.6369,0-1.2738-0.0307-1.9109-0.0921v0.6445      c0.5322-0.0522,1.0491,0.1963,1.3408,0.6445c0.3012,0.6415,0.4338,1.3493,0.3852,2.0563v17.4626      c0.059,0.6042-0.0759,1.2116-0.3852,1.734c-0.3512,0.3545-0.8447,0.5296-1.3408,0.4757V32.5      c2.3835-0.0818,3.9246-0.1227,4.6233-0.1227C136.322,32.3773,137.7809,32.4182,140,32.5z"></path>				<path style="fill-rule:evenodd;clip-rule:evenodd;fill:#C8D5DC;" d="M118.4978,32.5c1.5298,0.0608,3.0256-0.462,4.1845-1.4625      c1.0689-0.9449,1.8686-2.156,2.3177-3.5101l-0.5289-0.1755c-0.855,1.2339-2.2632,1.9672-3.7644,1.96      c-1.0531,0.02-2.0631-0.4175-2.7689-1.1993c-0.8566-1.151-1.2557-2.5789-1.12-4.0073      c-0.0372-1.6216,0.2374-3.2352,0.8088-4.7532c0.3776-1.2208,1.5227-2.0401,2.8-2.0036c0.442-0.0225,0.8792,0.1009,1.2444,0.351      c-0.7016,0.1612-1.3369,0.5339-1.82,1.0676c-0.4739,0.5018-0.7358,1.1672-0.7311,1.8574      c-0.0327,0.7184,0.2449,1.4163,0.7622,1.9159c0.5797,0.5036,1.3333,0.7608,2.1,0.7166      c0.7942,0.0292,1.5672-0.2604,2.1467-0.8043c0.5564-0.5273,0.8619-1.2666,0.84-2.0329      c0.0092-0.6303-0.1636-1.2498-0.4978-1.7843c-0.3379-0.5322-0.8101-0.966-1.3689-1.2578      c-0.5543-0.2892-1.1458-0.5008-1.7578-0.6288c-0.7709-0.1719-1.559-0.2554-2.3488-0.2489      c-2.1195-0.1014-4.1968,0.616-5.8021,2.0037C111.7311,19.8394,111,21.8431,111,24.5146c0,2.7886,0.6844,4.8166,2.0533,6.0841      C114.5531,31.9142,116.5051,32.5959,118.4978,32.5z"></path>				<path style="fill-rule:evenodd;clip-rule:evenodd;fill:#C8D5DC;" d="M41.02,32.5v-0.5932      c-0.7444-0.0586-1.4666-0.2815-2.1146-0.6526c-0.4494-0.342-0.7439-0.8491-0.8181-1.4089      c-0.1504-1.0459-0.2124-2.1025-0.1852-3.1588V13.428l8.7054,19.042h0.4939l7.44-18.2711V29.356      c0.0258,0.5502-0.0368,1.1009-0.1852,1.6313c-0.1112,0.3241-0.3686,0.5769-0.6946,0.6822      c-0.5278,0.1484-1.0725,0.2281-1.6207,0.2373V32.5c1.1733-0.0593,3.005-0.0889,5.495-0.089c2.3874,0,4.2088,0.0297,5.4642,0.089      v-0.5932c-0.4825-0.0077-0.9612-0.0877-1.42-0.2373c-0.2936-0.1245-0.515-0.3754-0.602-0.6822      c-0.1365-0.5325-0.1937-1.0821-0.17-1.6313V14.644c-0.0217-0.5482,0.0302-1.0969,0.1543-1.6313      c0.0802-0.3105,0.3039-0.564,0.602-0.6822c0.4645-0.1483,0.9481-0.2282,1.4356-0.2373V11.5      c-1.2554,0.0593-3.0768,0.089-5.4642,0.089H54.85l-5.0628,12.517L43.9526,11.5c-1.7906,0.0593-3.9206,0.089-6.39,0.089      c-1.091,0-1.9452-0.0297-2.5626-0.089v0.5932c0.4825,0.0077,0.9612,0.0877,1.42,0.2373c0.2936,0.1245,0.515,0.3754,0.602,0.6822      c0.1365,0.5325,0.1937,1.0821,0.17,1.6313V27.28c0.0189,0.8927-0.0327,1.7854-0.1543,2.67      c-0.0556,0.4958-0.2725,0.9596-0.6175,1.32c-0.409,0.3338-0.8988,0.5538-1.42,0.6378V32.5      c0.6174-0.0593,1.4715-0.0889,2.5623-0.089C39.0236,32.411,40.1761,32.4407,41.02,32.5z"></path>				<path style="fill-rule:evenodd;clip-rule:evenodd;fill:#C8D5DC;" d="M94.9016,32.38c0.7147,0,2.1443,0.03,4.2888,0.09      c0.2239,0.0219,0.4489,0.0319,0.6739,0.03v-0.63c-0.7196,0.0685-1.4404-0.1174-2.0372-0.5253      c-0.4624-0.5328-0.6792-1.2355-0.5974-1.9362v-9.006c-0.0011-0.577,0.1813-1.1395,0.5208-1.6061      c0.3208-0.4685,0.7666-0.8377,1.2867-1.0656c0.3062-0.1445,0.6415-0.2163,0.98-0.21c-0.986,0.5809-1.583,1.6476-1.5624,2.7918      c-0.0242,0.6066,0.2365,1.1896,0.7046,1.576c0.5846,0.426,1.3002,0.6332,2.0219,0.5854      c0.7603,0.0305,1.4988-0.2579,2.0372-0.7956c0.5402-0.5803,0.8221-1.3547,0.7815-2.1465      c0.0179-0.7631-0.2133-1.5113-0.6586-2.1313c-0.526-0.64-1.3352-0.9774-2.16-0.9006C99.53,16.3815,97.97,17.2703,97.23,18.7514      V16.59c-1.7595,0.3076-3.5441,0.4482-5.33,0.42c-0.6127,0-1.2458-0.03-1.8994-0.09v0.63      c0.5265-0.0524,1.0389,0.1899,1.3326,0.63c0.2992,0.6261,0.4311,1.319,0.3829,2.0113v9.516      c0.0584,0.5918-0.0759,1.1867-0.3829,1.696C90.9818,31.7517,90.492,31.9232,90,31.87v0.63      c0.2148,0.0025,0.4296-0.0075,0.6433-0.03C92.849,32.41,94.2685,32.38,94.9016,32.38z"></path>				<path style="fill-rule:evenodd;clip-rule:evenodd;fill:#C8D5DC;" d="M77.2511,32.5c1.5413,0.0617,3.0491-0.4606,4.222-1.4625      c1.0768-0.9421,1.8838-2.1534,2.3385-3.51L83.278,27.352c-0.8681,1.2366-2.2873,1.969-3.7982,1.96      c-0.9901,0.0068-1.9303-0.4339-2.5583-1.1993c-0.8103-1.1709-1.1826-2.5897-1.0515-4.0076c0-0.468,0.0105-0.819,0.0315-1.053H84      C84,18.684,82.0224,16.5,78.0673,16.5c-2.1355-0.1025-4.2295,0.6142-5.8543,2.0037C70.7377,19.8394,70,21.8431,70,24.5146      c0,2.7886,0.6592,4.8166,1.9776,6.0841C73.4117,31.9101,75.3101,32.5945,77.2511,32.5z M77.2744,17.5      c0.5973,0,1.0396,0.467,1.3267,1.4011c0.3154,1.1723,0.449,2.3861,0.3963,3.5989H75C75.2297,19.1667,75.9879,17.5,77.2744,17.5z      "></path>				<rect x="35" y="42.815" style="fill:#C8D5DC;" width="126" height="2"></rect>			</g>		</g>	</g></g></svg>