<svg xmlns="http://www.w3.org/2000/svg" xmlns:xlink="http://www.w3.org/1999/xlink" id="f3b4ed8e-2429-4c2b-b3c6-f828f38df6d5" x="0px" y="0px" viewBox="0 0 196 55" style="enable-background:new 0 0 196 55;" xml:space="preserve"><rect style="fill-opacity:0;" width="196" height="55"></rect><polygon style="fill-rule:evenodd;clip-rule:evenodd;fill:#C8D5DC;" points="82.775,12.28 82.775,42.345 94.99,42.345 94.99,37.235   88.795,37.235 88.795,12.28 "></polygon><polygon style="fill-rule:evenodd;clip-rule:evenodd;fill:#C8D5DC;" points="80.595,18.09 80.595,12.28 68.555,12.28 68.555,42.345   80.98,42.345 80.98,36.5 74.68,36.5 74.68,29.605 80.35,29.605 80.35,23.935 74.68,23.935 74.68,18.09 "></polygon><path style="fill-rule:evenodd;clip-rule:evenodd;fill:#C8D5DC;" d="M64.8,40.105c1.05-1.4933,1.5633-3.7217,1.54-6.685l-0.07-14.07  c0.1181-1.9038-0.4673-3.7845-1.645-5.285c-1.2734-1.2697-3.0369-1.9214-4.83-1.785H51.5v30.065h8.085  C62.0117,42.345,63.7501,41.5983,64.8,40.105z M57.555,37.025V17.53h0.665c0.4388-0.0217,0.8777,0.0376,1.295,0.175  c0.2879,0.1256,0.5013,0.3778,0.5775,0.6825c0.1233,0.4977,0.1763,1.0101,0.1575,1.5225v15.505  c0.1039,0.7877-0.4504,1.5105-1.2381,1.6144c-0.1352,0.0178-0.2721,0.0164-0.4069-0.0044H57.555z"></path><polygon style="fill-rule:evenodd;clip-rule:evenodd;fill:#C8D5DC;" points="139.365,42.345 139.365,32.44 144.16,12.28   138.21,12.28 136.53,22.465 134.85,12.28 128.9,12.28 133.695,32.44 133.695,42.345 "></polygon><path style="fill-rule:evenodd;clip-rule:evenodd;fill:#C8D5DC;" d="M103.645,42.625c2.0823,0.1416,4.1164-0.6695,5.53-2.205  c1.3643-1.7924,2.0355-4.0172,1.89-6.265V19.84c0-2.59-0.63-4.5442-1.89-5.8625c-3.2152-2.6367-7.8448-2.6367-11.06,0  c-1.26,1.3183-1.89,3.2725-1.89,5.8625v14.315c-0.14,2.2418,0.5308,4.4592,1.89,6.2475  C99.523,41.9478,101.5592,42.7662,103.645,42.625z M102.175,19.805c0-1.5167,0.5017-2.2751,1.505-2.275  c0.4513-0.0503,0.8832,0.1975,1.0675,0.6125c0.1925,0.5081,0.2817,1.0495,0.2625,1.5925v14.7c0.0271,0.6649-0.0678,1.3292-0.28,1.96  c-0.1625,0.4512-0.6069,0.7379-1.085,0.7c-0.4865,0.043-0.948-0.2227-1.155-0.665c-0.2419-0.6238-0.3493-1.2918-0.315-1.96  L102.175,19.805z"></path><path style="fill-rule:evenodd;clip-rule:evenodd;fill:#C8D5DC;" d="M127.945,22.5c0.0472-1.9675-0.1646-3.9327-0.63-5.845  c-0.3322-1.3845-1.1367-2.6098-2.275-3.465c-1.3772-0.871-2.9933-1.2873-4.62-1.19c-2.07-0.1523-4.0993,0.6312-5.53,2.135  c-1.2367,1.4233-1.855,3.5233-1.855,6.3v12.95c0,3.1033,0.5308,5.4192,1.5925,6.9475c1.109,1.553,2.9435,2.4206,4.8475,2.2925  c2.0579,0.1028,3.9916-0.9866,4.97-2.8l1.015,2.52h2.415v-17.5h-7.35v5.18h1.61v4.305c0.0378,0.7058-0.0818,1.4111-0.35,2.065  c-0.3987,0.6765-1.2704,0.9018-1.9469,0.5031c-0.2076-0.1223-0.3807-0.2955-0.5031-0.5031c-0.2682-0.6539-0.3878-1.3592-0.35-2.065  V19.77c0-1.4933,0.5717-2.24,1.715-2.24c0.4442-0.0392,0.8673,0.1966,1.0675,0.595c0.2241,0.5306,0.3257,1.1048,0.2975,1.68V22.5  H127.945z"></path><rect x="51.5" style="fill:#C8D5DC;" width="93" height="5"></rect><rect x="51.5" y="50" style="fill:#C8D5DC;" width="93" height="5"></rect></svg>