<svg xmlns="http://www.w3.org/2000/svg" xmlns:xlink="http://www.w3.org/1999/xlink" id="b44de2df-b1f4-45b4-8b76-9e5ad84bc5d5" x="0px" y="0px" viewBox="0 0 196 55" style="enable-background:new 0 0 196 55;" xml:space="preserve"><rect style="fill:#FFFFFF;fill-opacity:0;" width="196" height="55"></rect><path style="fill:#C8D5DC;" d="M59.756,17.5c-1.3971-0.0222-2.7784,0.2982-4.0231,0.9333  c-1.1597,0.5959-2.1618,1.4581-2.9241,2.5159v-3.0434H47V45.5h5.8088V34.4216c1.4133,2.5161,3.7552,3.7741,7.0257,3.774  c1.8661,0.0425,3.7115-0.3978,5.3575-1.2781c1.5227-0.844,2.7593-2.1226,3.552-3.6726c0.8726-1.7496,1.3038-3.6862,1.256-5.6407  c0.1516-2.732-0.8197-5.4073-2.6886-7.4057C65.519,18.3995,63.0005,17.5,59.756,17.5z M62.3655,35.0654  c-0.945,1.5441-2.6383,2.4709-4.4483,2.4346c-1.7484,0.0658-3.4039-0.7871-4.3654-2.2488c-1.1391-1.8934-1.68-4.0866-1.5518-6.2925  c-0.1136-2.1766,0.458-4.334,1.6345-6.1687c1.7815-2.4713,5.229-3.0305,7.7003-1.249c0.4103,0.2958,0.7781,0.6467,1.0928,1.0427  c1.162,1.7928,1.7136,3.9132,1.5724,6.045C64.1083,30.8892,63.5392,33.1305,62.3655,35.0654z"></path><path style="fill:#C8D5DC;" d="M178.0133,32.3472c-1.4852-1.1296-3.5414-1.1296-5.0266,0c-1.189,1.0246-1.3222,2.8191-0.2976,4.008  c0.0917,0.1064,0.1912,0.2059,0.2976,0.2976c1.4852,1.1296,3.5414,1.1296,5.0266,0c1.189-1.0246,1.3222-2.8191,0.2976-4.008  C178.2192,32.5384,178.1197,32.4389,178.0133,32.3472z"></path><path style="fill:#C8D5DC;" d="M86.4694,19.66c-1.132,0.8131-1.9812,1.96-2.4286,3.28V18.9H78v19.6h6.0408v-8.64  c-0.0477-1.9752,0.4464-3.9257,1.4286-5.64c0.9093-1.5774,2.6313-2.5063,4.4489-2.4c0.5882-0.0234,1.1742,0.086,1.7144,0.32  L92,18.66c-0.4533-0.1154-0.9201-0.1692-1.3878-0.16C89.1441,18.4449,87.6955,18.8505,86.4694,19.66z"></path><path style="fill:#C8D5DC;" d="M166,28.6177c0-3.2942-0.9683-5.8042-2.9048-7.53c-1.9365-1.7258-4.7485-2.5884-8.436-2.5877  c-2.133-0.0512-4.2515,0.3636-6.2077,1.2156c-1.6639,0.7351-3.0703,1.9503-4.0389,3.49c-0.9701,1.621-1.46,3.4842-1.4126,5.3728  c-0.0477,1.8638,0.4428,3.7019,1.4126,5.2942c0.9758,1.5194,2.3818,2.714,4.0389,3.4314c1.9596,0.839,4.0767,1.2469,6.2077,1.196  c2.5984,0.0969,5.1751-0.5058,7.461-1.7451c1.8922-1.0475,3.2249-2.8776,3.641-5h-4.3772c-0.1809,1.367-0.8526,2.6216-1.89,3.53  c-1.2099,0.8578-2.6782,1.2732-4.1582,1.1763c-4.2976,0-6.4464-2.5359-6.4464-7.6077v-0.2353L166,28.6177z M150.9929,22.0583  c1.1278-1.0708,2.6445-1.6338,4.1979-1.5583c1.4825-0.0719,2.9276,0.4792,3.9858,1.52c1.0901,1.2484,1.7319,2.8252,1.8234,4.48h-12  C149.1612,24.8415,149.8612,23.2814,150.9929,22.0583z"></path><path style="fill:#C8D5DC;" d="M35.6821,28.3628c-2.2141-1.2645-4.6596-2.0714-7.1915-2.3728  c-1.1037-0.1571-2.1911-0.413-3.2491-0.7646c-0.5662-0.1643-1.0789-0.4755-1.4859-0.9021c-0.2607-0.3578-0.3932-0.793-0.3763-1.2354  c0-1.6992,1.466-2.5488,4.398-2.5488c1.2753-0.055,2.538,0.2728,3.6255,0.9412c0.9442,0.6368,1.5937,1.6256,1.8029,2.7451h4.3585  c-0.2674-1.8511-1.4314-3.4508-3.1105-4.2747c-2.2684-1.0712-4.7649-1.5693-7.2707-1.4507c-3.1962,0-5.6198,0.4836-7.2708,1.4509  c-1.5197,0.7531-2.4798,2.3039-2.4764,4c-0.0027,1.5664,0.8685,3.0035,2.2585,3.7256c2.2915,1.1595,4.7757,1.8905,7.33,2.1568  c1.299,0.1469,2.5536,0.5608,3.685,1.2158c0.7724,0.3801,1.2852,1.1414,1.3471,2c0.0218,1.0046-0.4812,1.9481-1.3274,2.49  c-1.0997,0.6722-2.3781,0.9936-3.665,0.9214c-1.3839,0.0886-2.7612-0.2538-3.9425-0.98c-0.9418-0.7022-1.574-1.7427-1.7632-2.9021  H17c0.9774,3.9477,4.2925,5.9216,9.9453,5.9216C34.3151,38.5,38,36.4869,38,32.4607  C38.0111,30.7797,37.1285,29.2194,35.6821,28.3628z"></path><path style="fill:#C8D5DC;" d="M132.6821,28.3628c-2.2141-1.2645-4.6596-2.0713-7.1915-2.3726  c-1.1037-0.1571-2.1911-0.413-3.2491-0.7646c-0.5662-0.1643-1.0789-0.4755-1.4859-0.9021c-0.2607-0.3578-0.3932-0.793-0.3763-1.2354  c0-1.6992,1.466-2.5488,4.398-2.5488c1.2753-0.055,2.538,0.2728,3.6255,0.9412c0.9442,0.6368,1.5937,1.6256,1.8029,2.7451h4.3585  c-0.2674-1.8511-1.4314-3.4508-3.1105-4.2747c-2.2683-1.0713-4.7649-1.5695-7.2707-1.4509c-3.1962,0-5.6198,0.4836-7.2708,1.4509  c-1.5197,0.7531-2.4798,2.3039-2.4764,4c-0.0027,1.5664,0.8685,3.0035,2.2585,3.7256c2.2915,1.1595,4.7757,1.8905,7.33,2.1568  c1.299,0.1469,2.5536,0.5608,3.685,1.2158c0.7724,0.3801,1.2852,1.1414,1.3471,2c0.0218,1.0046-0.4812,1.9481-1.3274,2.49  c-1.0997,0.6722-2.3781,0.9936-3.665,0.9214c-1.3839,0.0886-2.7612-0.2538-3.9425-0.98c-0.9418-0.7022-1.574-1.7427-1.7632-2.9021  H114c0.9774,3.9477,4.2925,5.9216,9.9453,5.9216C131.3151,38.5,135,36.4869,135,32.4607  C135.0111,30.7797,134.1285,29.2194,132.6821,28.3628z"></path><path style="fill:#C8D5DC;" d="M101.5,9.5c-0.9134-0.0358-1.808,0.2658-2.5133,0.8472c-1.189,1.0246-1.3222,2.8191-0.2976,4.008  c0.0917,0.1064,0.1912,0.2059,0.2976,0.2976c1.4852,1.1296,3.5415,1.1296,5.0266,0c1.189-1.0246,1.3222-2.8191,0.2976-4.008  c-0.0917-0.1064-0.1912-0.2059-0.2976-0.2976C103.308,9.7658,102.4134,9.4642,101.5,9.5z"></path><rect x="99" y="18.5" style="fill:#C8D5DC;" width="6" height="20"></rect></svg>