<svg xmlns="http://www.w3.org/2000/svg" xmlns:xlink="http://www.w3.org/1999/xlink" id="a262c5d0-4eee-4465-a5f3-3721a35d4dc3" x="0px" y="0px" viewBox="0 0 220 55" style="enable-background:new 0 0 220 55;" xml:space="preserve"><rect style="fill-opacity:0;" width="220" height="55"></rect><rect x="28" y="5.5" style="fill:#C8D5DC;" width="2" height="44"></rect><rect x="64" y="5.5" style="fill:#C8D5DC;" width="2" height="44"></rect><rect x="100" y="5.5" style="fill:#C8D5DC;" width="2" height="44"></rect><rect x="140" y="5.5" style="fill:#C8D5DC;" width="2" height="44"></rect><rect x="176" y="5.5" style="fill:#C8D5DC;" width="2" height="44"></rect><polygon style="fill:#C8D5DC;" points="11.15,21.5 6.05,21.5 6.05,42.5 24.05,42.5 24.05,40.64 11.15,40.64 "></polygon><polygon style="fill:#C8D5DC;" points="38.66,42.5 58.07,42.5 58.07,40.64 43.76,40.64 43.76,32.18 56.42,32.18 56.42,30.32   43.76,30.32 43.76,23.36 58.07,23.36 58.07,21.5 38.66,21.5 "></polygon><path style="fill:#C8D5DC;" d="M91.5352,24.0947C89.3451,22.3649,86.18,21.5,82.04,21.5h-9v21h9.18  c4.0996,0,7.2246-0.9251,9.375-2.7754s3.2254-4.5451,3.225-8.0846C94.82,28.34,93.7251,25.8249,91.5352,24.0947z M87.89,38.375  c-1.2822,1.5577-3.2371,2.4011-5.25,2.265h-4.5V23.36h4.5c1.9767-0.1343,3.9059,0.6448,5.2349,2.1142  C89.065,26.8847,89.66,28.94,89.66,31.64C89.66,34.62,89.07,36.865,87.89,38.375z"></path><path style="fill:#C8D5DC;" d="M122.66,23.09c1.588-0.0671,3.1507,0.4151,4.4248,1.3653c1.2012,0.9982,1.9959,2.4012,2.2345,3.9447  h3.99c-0.1725-1.418-0.7684-2.751-1.71-3.8252c-1.0156-1.1203-2.2936-1.9708-3.7193-2.4748  c-1.7035-0.6068-3.5025-0.9012-5.3106-0.8691c-2.2898-0.0554-4.5636,0.395-6.6594,1.3191c-1.7832,0.7955-3.2917,2.1001-4.336,3.75  c-1.0385,1.7275-1.5637,3.715-1.5141,5.73c-0.0498,2.015,0.4754,4.0026,1.5141,5.73c1.0386,1.6452,2.5421,2.9452,4.32,3.7353  c2.0734,0.9116,4.3216,1.357,6.586,1.3047c2.0276,0.0136,4.0455-0.2797,5.9853-0.87c1.6262-0.445,3.1293-1.2556,4.3946-2.37v-8.19  H120.59v1.74h7.2v6.42c-0.8097,0.4736-1.6768,0.8415-2.58,1.0947c-0.8828,0.22-1.7902,0.326-2.7,0.3154  c-2.0591,0.0991-4.0442-0.7794-5.3555-2.37c-1.3898-1.8981-2.074-4.2217-1.9345-6.5701c-0.146-2.3538,0.5505-4.6828,1.9649-6.57  C118.5496,23.845,120.5712,22.981,122.66,23.09z"></path><polygon style="fill:#C8D5DC;" points="149.029,42.5 168.439,42.5 168.439,40.64 154.129,40.64 154.129,32.18 166.789,32.18   166.789,30.32 154.129,30.32 154.129,23.36 168.439,23.36 168.439,21.5 149.029,21.5 "></polygon><polygon style="fill:#C8D5DC;" points="181.43,21.5 181.43,23.36 190.13,23.36 190.13,42.5 195.199,42.5 195.199,23.36   203.899,23.36 203.899,21.5 "></polygon></svg>